<?xml version="1.0" encoding="utf-8"?>
<!-- Generator: Adobe Illustrator 23.0.5, SVG Export Plug-In . SVG Version: 6.00 Build 0)  -->
<svg version="1.1" id="Layer_1" xmlns="http://www.w3.org/2000/svg" xmlns:xlink="http://www.w3.org/1999/xlink" x="0px" y="0px"
	 viewBox="0 0 1920 1080" style="enable-background:new 0 0 1920 1080;" xml:space="preserve">
<style type="text/css">
	.st0{opacity:0.4;fill:url(#SVGID_1_);}
	.st1{opacity:0.5;fill:url(#SVGID_2_);}
</style>
<linearGradient id="SVGID_1_" gradientUnits="userSpaceOnUse" x1="637.4927" y1="-2.8591" x2="637.4927" y2="97.4222">
	<stop  offset="0" style="stop-color:#F9FBF8"/>
	<stop  offset="0.8077" style="stop-color:#C2DAF1"/>
</linearGradient>
<path class="st0" d="M1358.9,52.2c-26-6.7-60.5-6-90.5-5.5c-39.3,0.6-78.3,1.5-117.5,2.8c-42.9,1.5-85.9,2.6-128.8,0.8
	c-4.8-0.2-9.6-0.5-14.4-0.9c-0.6,0-1.1-0.1-1.7-0.1c5.2-0.9,10.8-1.6,14.8-2.2c22.1-3.4,45.9-4.7,69.1-6.6c13-1.1,13.7-7.7,3.5-10.1
	c-13.6-3.3-31.1-3.1-46.7-1.9c-58.9-1.3-115.8,9.2-175.3,5.9c-65.7-3.7-128.9-6.6-195.5-5.6c-32.3,0.5-64.9,1-96.9-1
	c-28.4-1.8-50.2-9.6-78.8-11.4c-28.4-1.8-59.3,0.2-88.2-0.1c-30.6-0.4-61.3-0.1-91.9-0.6c20.9-4.1,47.3-8.1,27.7-17.1
	c-19.2-8.8-65.5-7.5-92-7.6c-37.6,0-75.2,1.5-112.8,0.9c-30.1-0.4-60.5-2.8-90.6-3.7c-30.1-1-60.1-1.7-90.2-2.4
	c-7.1-4.8-23-3.1-29.9,1.9C-77.5-5.5-79.2,3-81.6,10.5c-3.4,11-9.5,26.7-9.4,39.6c0,8.2,2.6,30,31.4,32.3c-6.3,0.8-6.9,4.8,0.3,5.3
	c20.5,1.4,40.2,4.6,60,6.9c19.7,2.3,42.5,2.4,62.9,2.1c24.9-0.4,49.3-1.5,74.2-1.1c27.8,0.4,55.5,1.8,83.2,2.6
	c24,0.7,47.4,0.3,71.4,0.3c13.3,0,30.1,0.4,42.4-1.9c9-1.7,16.7-6.5,11-10.1c-3.4-2.2-6.5-2.3-8.4-4.9c-0.8-1.1-1.9-2.1-3.1-3.1
	c0.9-0.2,2-0.4,3.3-0.8c7.1-1.8,20.3-0.7,28.1-0.3c11.6,0.5,22.8,0.5,34.5,0.3c25.8-0.4,51.6-1.2,77.3-2c53.5-1.8,107-4.5,160.8-5.2
	c44.3-0.6,89.2,1.9,133.3-0.1c11.3-0.5,22.6-0.9,34-0.8c4.9,0,10.7,0.1,15.3,0.8c2.7,0.4,1,0.8-2,2.7c-3.5,2.2-1.5,5.3,4.6,6.6
	c45.2,9.6,99.4,1.6,146.5-1.4c68.9-4.3,140.2-3,208.7-8.4c0,0,0,0,0,0c20.3-0.1,40.5-0.4,60.8-0.6c39.8-0.5,84,0.7,119.4-7.4
	C1368.8,59.6,1367.9,54.6,1358.9,52.2z M78.5,24.1c-11.4,6-42.3,6.3-59.1,3.8c-5.6-0.8-6.5-3.9,0-4.6c6.5-0.7,13.1-1,19.8-1.2
	c0.7-0.1,1.5-0.3,2.4-0.3c10.5-0.5,20.8-1.3,31.4-1.4C77.5,20.5,81.3,22.7,78.5,24.1z M297.4,72.1c-28.8,3.3-58.3,4.7-88.4,5.1
	c-8.7,0.1-107.3,3.2-84.5-8.3c11.5-5.8,38.3-5.8,55.4-6.3c29.9-0.8,60.2-1.1,89.8-2.5c1.3-0.1,2.4,0,3.3,0.2
	c14.7-0.9,30.8-1.7,40.8,1.2C329.3,65.9,307.5,70.9,297.4,72.1z M625.2,42.5c-14.8,1.6-30.4,2.7-45.6,1.4c-5.5-0.5-6-3.3-1.5-4.4
	c13-3,28.3-3,43-3.5c4.1-0.1,6.1,1,6.1,2.2c0.6,0.2,1.2,0.4,1.8,0.8C631.5,40.3,628.7,42.1,625.2,42.5z M976.5,60.3
	c-21.1,2.5-46,3.5-67.4,0.9c-4.7-0.6-6.9-3.5-1.5-4.4c17-2.8,34.3-3.5,52.7-3.5c3.5,0,5.5,0.9,6,1.9c3.3,0.1,6.7,0.3,10.2,0.5
	C983,56.1,982.1,59.6,976.5,60.3z"/>
<linearGradient id="SVGID_2_" gradientUnits="userSpaceOnUse" x1="1663.485" y1="138.9555" x2="1663.485" y2="227.472">
	<stop  offset="0" style="stop-color:#F9FBF8"/>
	<stop  offset="0.8077" style="stop-color:#C2DAF1"/>
</linearGradient>
<path class="st1" d="M2083.4,180.5c-97.8-12.7-206.6,3-303.9-7.4c34.8-5.6,76.7-5.8,113.3-6.6c46.8-1.1,94-1.9,137.7-8.9
	c11.8-1.9,7.3-8.6-3.4-9.7c-78.7-8.3-159.2,2.7-238.5,3.7c-70.7,0.9-141.9-4.3-211.6,1.5c-26-0.5-51.6,0-76.8,4.6
	c-8.6,1.6-10.6,6.9-3.2,9.2c26.5,8.3,59.1,7.5,90.7,8.2c-54.6,2.8-111.1,2.6-165.5,4.1c-58.5,1.6-127.3,0.3-177.9,13.3
	c-14.9,3.9-9,12,9,12.5c69.7,1.9,139.6,1.5,209.4,1.3c72.8-0.2,144.8,4,217.3,3.8c67.1-0.2,134.2-6.4,200.6-9.6
	c34.7-1.7,69.8-2.2,104.5-3.8c33.4-1.6,65.4-4.7,98.2-7.5c4.5-0.4,7.6-2.1,7.6-3.8v-1.1C2091,182.4,2087.8,181.1,2083.4,180.5z
	 M1463.6,192.3c-16.2,3.4-34.7,3.8-52.1,1.4c-5.9-0.8-8.9-4.4-1.9-5.6c14-2.5,28.7-3.6,44.2-3.6c4.4,0,6.9,1,7.6,2.3
	C1467.9,187.3,1470.1,190.9,1463.6,192.3z M1685.4,165.2c-25,2.5-51.4,3.2-76.9,1.1c-10.6-0.9-8.4-6,0-7.3c21.1-3.2,49.1-5,71.2-2.2
	c1.5,0.2,2.8,0.5,3.8,0.8c0.7,0.1,1.3,0.2,1.9,0.2C1694.3,159.2,1695.7,164.2,1685.4,165.2z"/>
</svg>
