<svg version="1.1" id="Layer_1" xmlns="http://www.w3.org/2000/svg" xmlns:xlink="http://www.w3.org/1999/xlink" x="0px" y="0px"
	 viewBox="0 0 1920 1080" style="enable-background:new 0 0 1920 1080;" xml:space="preserve">
<style type="text/css">
	.st0{fill:#863F17;}
	.st1{fill:#9A4F2A;}
	.st2{fill:#400E01;}
	.st3{fill:#9BE400;}
	.st4{fill:#78A400;}
	.st5{fill:#6D2303;}
	.st6{fill:#A75C2F;}
	.st7{fill:#4C311A;}
	.st8{fill:#9ACC00;}
</style>
<g>
	<rect x="1.7" y="822" class="st0" width="1918.3" height="258.3"/>
	<path class="st1" d="M1920,836.8v88.7c-17.7,2.4-35.8,3.8-53.8,4.4c-58.2,1.9-116.2-4.1-174-8.6c-132.8-10.3-266.9-12.7-400.5-9.6
		c12.9,0.1,16.5,13.3,7.5,19.3s-23.3,6.6-36.2,6.6c-126.9,0.6-253.9-7.9-378-25.1c-10.1-1.4-21.2-8.2-21.5-13.1
		c-0.3-3.5-4.2-6.4-9.4-7.3c-27.5-4.7-56.9-4.5-84.3,0.6c-10.4,1.9-16.6,8.9-14.1,15.8c0.2,0.5,0.4,1,0.6,1.6
		c-38.2,9.7-76.4,19.3-114.6,29c-34.1,8.6-70.1,17.4-106,19.8c-20,1.3-32.5-13.8-19.7-24c6.6-5.3,12.6-11,17.7-16.9
		c-72.7-7.6-144.8,16-218.5,16.5c-41.8,0.3-83-6.9-124.8-7.9c-38.3-0.8-76.4,3.7-113,10.8c-19.6,3.8-48,14.4-75.5,20.2V822h1799.1
		C1840.8,826,1880.8,830.4,1920,836.8z"/>
	<path class="st2" d="M1920,822.1v40c-125.9,14-253.9,20.3-381.6,18.6c-61.9-0.8-124-3.5-185.7-0.5c-40.6,2-363.5-16-534.5-4.4
		c-163.5,11.1-319.7,13.9-483.8,19c-81.1,2.5-307-11.9-332.6-15.7V822h1917.8C1919.7,822,1919.8,822.1,1920,822.1z"/>
	<path class="st3" d="M1920,822v38.5c-118.4,15-510.3,17.8-690.1,8c-197.7-10.8-608.5,2.9-752,14.2c-116.5,9.1-380.7-5.9-476.1-11.9
		V822H1920z"/>
	<path class="st4" d="M1920,843.1v17.4c-118.4,15-510.3,17.8-690.1,8c-197.7-10.8-608.5,2.9-752,14.2
		c-116.5,9.1-380.7-5.9-476.1-11.9v-22.7c54.2,5.7,265.9,26.6,371.1,20.4c121.3-7.2,592.8-30.1,731.5-14.7
		C1233.9,868.1,1767.1,862.2,1920,843.1z"/>
	<path class="st5" d="M1920,998.4v81.9H1.7V1024c68.8-20.8,140.8-37.2,214.6-48.8c43.3-6.8,87.2-12,131.4-15.5
		c22.9-1.8,54.3,0.9,57,15.9c3,16.9-37.1,28-31.8,44.6c16.3,10.2,42.5,4.9,65,3.5c36.2-2.2,71.1,7.8,105.9,14.6
		c34.8,6.8,75.6,9.8,104.8-4.3c11.7-5.7,20.7-13.8,33.6-18.3c32.3-11.2,69.6,4.4,103.1,14c59.8,17.1,127.9,14.6,193,11.8
		c52.7-2.3,107.7-5,153.1-22.7c33.7-13.2,70.1-35.1,106-24.7c7.7,13.6,27.4,22.7,47.4,29.1c117.6,37.5,257.9,7,387.9,16.8
		c23.9,1.8,49.9,4.7,70.4-3.4c20.5-8.1,31.5-25.8,54.7-29.4c16.5-2.6,33.1,3,50,3.8C1872.8,1012.1,1896,1002.6,1920,998.4z"/>
	<path class="st6" d="M160.9,954.2c0.1,0.9,0.3,1.8,1.1,2.5c1.6,1.4,4.8,1.3,7.4,1c14.2-1.3,28.3-2.5,42.5-3.8
		c12.3-1.1,24.7-2.2,36-5.6c33.3-10,6.8-34.7-21.9-29.8c-12.3,2.1-23.3,9-34.4,12.9C176.8,936.7,159.9,941.1,160.9,954.2z"/>
	<path class="st6" d="M1371.2,1015.1c0.1,0.9,0.3,1.8,1.1,2.5c1.6,1.4,4.8,1.3,7.4,1c14.2-1.3,28.3-2.5,42.5-3.8
		c12.3-1.1,24.7-2.2,36-5.6c33.3-10,6.8-34.7-21.9-29.8c-12.3,2.1-23.3,9-34.4,12.9C1387.1,997.6,1370.2,1002,1371.2,1015.1z"/>
	<path class="st6" d="M930.7,974.5c4-0.1,8.1-0.5,11.9-1.4c6.2-1.4,12.1-4.1,14.6-8c6.3-9.7-12.4-15.8-23.8-10.7
		C924.7,958.2,912.5,974.7,930.7,974.5z"/>
	<path class="st6" d="M286.3,1023c4.3-0.9,8.7-2.2,11.7-4.4c0.4-0.3,0.8-0.6,0.8-1c0.1-0.5-0.4-1-1-1.4c-6.4-3.9-29.4-3.2-36.8,0.1
		c-5.5,2.5-10.1,7.3-1.8,8.8C267.1,1026.6,278.8,1024.6,286.3,1023z"/>
	<path class="st6" d="M605.9,903.1c-3.6,1.4-7.2,2.9-10.8,4.3c-1.6,0.6-3.3,1.4-4,2.5c-0.7,1.2,0.1,2.7,1.5,3.6
		c1.5,0.9,3.5,1.4,5.5,1.6c8.8,1.1,17.7-1.5,25.8-4c1.8-0.6,3.8-1.3,4.5-2.5c0.6-1.1-0.1-2.4-1.3-3.2c-1.2-0.9-2.9-1.4-4.5-1.7
		C618.4,902.8,609.8,901.5,605.9,903.1z"/>
	<path class="st6" d="M785,930c-2,0.8-4.1,1.6-6.1,2.4c-0.9,0.4-1.9,0.8-2.2,1.4c-0.4,0.7,0,1.5,0.9,2.1c0.8,0.5,2,0.8,3.1,0.9
		c5,0.6,10-0.8,14.6-2.3c1-0.3,2.2-0.7,2.6-1.4c0.3-0.6,0-1.3-0.7-1.8c-0.7-0.5-1.6-0.8-2.6-1C792.1,929.8,787.2,929.1,785,930z"/>
	<path class="st6" d="M448.1,926.3c0.8,0.4,1.9,0.6,2.9,0.7c10.5,1.4,21.2-0.8,31.8-1c4.8-0.1,9.6,0.3,14.3,0.1
		c10.7-0.4,20.8-3.5,29.7-7.5c4.8-2.2,9.7-5,10.7-8.8c0.9-3.5-1.8-7.2-6.2-9.2c-4.4-2.1-10.2-2.7-15.5-2c-8.7,1-16.2,3.8-25.1,4.5
		c-6.4,0.5-13.2,0.9-19,3C465.8,908.3,439,921.9,448.1,926.3z"/>
	<path class="st6" d="M1696,936.3c0.8,0.4,1.9,0.6,2.9,0.7c10.5,1.4,21.2-0.8,31.8-1c4.8-0.1,9.6,0.3,14.3,0.1
		c10.7-0.4,20.8-3.5,29.7-7.5c4.8-2.2,9.7-5,10.7-8.8c0.9-3.5-1.8-7.2-6.2-9.2c-4.4-2.1-10.2-2.7-15.5-2c-8.7,1-16.2,3.8-25.1,4.5
		c-6.4,0.5-13.2,0.9-19,3C1713.7,918.3,1686.9,931.9,1696,936.3z"/>
	<path class="st6" d="M1842.5,951.3c-0.1-0.5-0.5-0.8-0.8-1.1c-4-3.1-10.8-3.2-16-5c-2.3-0.8-4.4-2-6.8-2.7c-5.5-1.6-12.7-0.8-20,1
		c-4,1-8.5,2.6-12,5.6c-3.2,2.8-4.7,6.5-4.2,9.1c0.5,2.6,2.8,4.2,5.9,4.6c5,0.7,10.7-0.3,15.5,0.7c3.5,0.7,7.1,1.6,11.5,0.9
		C1820,963.6,1843.5,956.8,1842.5,951.3z"/>
	<path class="st6" d="M1435.7,940.1c-0.6-0.4-1.2-0.5-1.8-0.6c-6.5-1-12.7,1.5-19.1,2c-2.9,0.2-5.8,0-8.7,0.4
		c-6.4,0.8-12.2,4.2-17,8.4c-2.7,2.4-5.2,5.3-5.4,9.1c-0.1,3.5,2,7.1,4.9,9c2.9,1.9,6.5,2.3,9.6,1.5c5.1-1.3,9.3-4.3,14.6-5.3
		c3.8-0.7,7.9-1.4,11.1-3.6C1427.2,958.7,1441.7,944.2,1435.7,940.1z"/>
	<path class="st6" d="M225.2,958.6c0.1,0.3,0.4,0.5,0.7,0.6c2.3,1.2,5.4,1.4,8.4,1.6c6.9,0.4,6.2-3.8,1.3-5.7
		C232.7,954,224.1,955.7,225.2,958.6z"/>
	<path class="st6" d="M271,925c0.9,1,3,1,4.7,0.8c4.4-0.7,11.6-3.8,4.5-6C276.3,918.6,268.3,922.2,271,925z"/>
	<path class="st6" d="M139.2,998.9c6.1-0.1,12.4,0,18,1.5c2.1,0.6,4.3,1.6,4.4,3.1c0.1,1.6-2.2,2.7-4.4,3.4c-3.8,1-7.9,1.3-12,1.5
		c-6.6,0.3-39,2.1-40.8-3.1C101.5,997.2,133.3,999,139.2,998.9z"/>
	<path class="st6" d="M798.2,958.3c-0.3,0.7-0.5,1.5,0,2.2c0.8,1.2,3.1,1.5,5.1,1.6c15.8,1,31.9-0.4,46.7-4.1
		c6.1-1.5,12.2-3.5,18.8-3.6c7.6-0.1,15.2,2.4,22.7,1.6c6-0.6,11-3.2,15.3-5.9c4.4-2.8,8.5-5.8,10.7-9.5c2.3-3.7,2.4-8.1-0.8-11.5
		c-2.9-3.1-8.1-4.9-13.5-5.7c-5.4-0.8-11-0.6-16.5-0.4c-6.3,0.2-12.6,0.4-18.9,0.7c-9.6,0.3-17.3,1.4-24.2,6
		c-4.3,2.9-7.9,6.1-12.9,8.5C817.7,944.4,802.3,946.4,798.2,958.3z"/>
	<path class="st6" d="M65.4,914.9c-2.3,0.6-4.7,1.2-6.2,2.1c-1.5,0.9-1.9,2.4,0,3.2c1.4,0.6,3.4,0.7,5.3,0.8
		c3.2,0.1,6.5,0.2,9.7,0.4c2.4,0.1,4.9,0.2,7.2-0.1c2.6-0.3,4.9-1,7.1-1.6c8.2-2.5,16.5-4.9,24.7-7.4c3-0.9,6.3-1.9,7.5-3.4
		c4.8-5.6-15.6-8.3-24.4-6.1c-5.2,1.3-8.7,4-12.8,5.8C78.3,911,72.2,913.1,65.4,914.9z"/>
	<path class="st6" d="M103,940c1.5-0.5,3-1.2,3.4-2.4c1.9-5.8-14.6-4.2-17.8-1.6c-2.5,2-5.1,5.7-0.9,6.5
		C92.2,943.3,99,941.4,103,940z"/>
	<path class="st6" d="M13.8,981.5c0.1,0.5,0.4,1.1,1.1,1.5c0.7,0.4,1.6,0.6,2.5,0.7c12.3,1.7,24.9-0.5,37.3-1.8
		c6.6-0.7,13.4-1,19.7-2.3c6.4-1.3,12.6-3.7,16.1-7.4c11.3-11.9-26.7-13.9-37.4-12C42.4,962.1,11.7,973.3,13.8,981.5z"/>
	<path class="st6" d="M110.1,954.9c-1,0.1-2.2,0.3-2.9,0.8c-0.8,0.6-0.6,1.2-0.3,1.7c1,1.5,2.1,3.1,4.4,3.8c1.5,0.5,3.4,0.6,5.3,0.8
		c6.3,0.4,20.1-0.9,15.4-6.5C129.3,952.4,116.5,954.3,110.1,954.9z"/>
	<path class="st6" d="M1441.8,958.5c-0.6,0.1-1.4,0.2-1.8,0.5c-0.5,0.4-0.4,0.8-0.2,1.1c0.6,0.9,1.3,1.9,2.7,2.4
		c0.9,0.3,2.1,0.4,3.3,0.5c3.9,0.3,12.4-0.6,9.5-4C1453.7,957,1445.7,958.2,1441.8,958.5z"/>
	<path class="st6" d="M1823.2,906.4c-0.6,0.1-1.4,0.2-1.8,0.5c-0.5,0.4-0.4,0.8-0.2,1.1c0.6,0.9,1.3,1.9,2.7,2.4
		c0.9,0.3,2.1,0.4,3.3,0.5c3.9,0.3,12.4-0.6,9.5-4C1835.1,904.9,1827.2,906.1,1823.2,906.4z"/>
	<path class="st6" d="M1460.4,969.1c-0.3,0-0.7,0.1-0.9,0.2c-0.2,0.2-0.1,0.4,0,0.5c0.3,0.5,0.7,1,1.4,1.2c0.5,0.2,1,0.2,1.6,0.3
		c1.9,0.2,6-0.1,4.5-1.8C1466.1,968.5,1462.3,969,1460.4,969.1z"/>
	<path class="st6" d="M833.1,972.4c-0.5,0-1,0.1-1.4,0.4c-0.4,0.3-0.3,0.6-0.1,0.8c0.5,0.7,1,1.4,2,1.8c0.7,0.2,1.6,0.3,2.5,0.4
		c2.9,0.2,9.4-0.4,7.2-3C842.1,971.2,836.1,972.1,833.1,972.4z"/>
	<path class="st6" d="M885.4,964.8c0.7-0.1,1.6-0.3,2.2-0.7c0.6-0.5,0.3-0.9,0.1-1.3c-0.9-1.1-1.8-2.2-3.6-2.7
		c-1.1-0.3-2.6-0.4-4-0.4c-4.7-0.1-15,1.3-11.1,5.4C871.1,967.3,880.6,965.4,885.4,964.8z"/>
	<path class="st6" d="M1765.9,944.6c0.7-0.1,1.6-0.3,2.2-0.7c0.6-0.5,0.3-0.9,0.1-1.3c-0.9-1.1-1.8-2.2-3.6-2.7
		c-1.1-0.3-2.6-0.4-4-0.4c-4.7-0.1-15,1.3-11.1,5.4C1751.6,947.1,1761.1,945.2,1765.9,944.6z"/>
	<g>
		<path class="st7" d="M334.3,922.7c18.9-4.6,46.2-5.6,68.1-1.6c11.3,1.9,22.1,5.1,31.8,9.5c4.9,2.1,9.4,4.6,13.6,7.3
			c4.1,2.9,5,3.4,5.9,4.2c4.6,3.8,2.4,1.8,7.8,6.9c0.5,0.5,0.3,0.2,6.7,7.2c2.6,2.7,1.2,1.4,4.7,4.5c1.4,1.2,1.2,1.3,5.3,4.2
			c30.4,22.1,79.5,23.4,125.1,21.5c61.6-2.7,76.8-10.1,96.1-15c36.9-8.6,47.3,6.9,82.6,15.3c14.9,3.7,33.7,5.6,49.5,6.5
			c-29.1,0.6-50.7-3-67.1-7.9c-26.2-8-31-15-61.3-10.5c-14.4,1.9-60.5,14-99.1,16.7c-34.5,2.6-69.9-1.1-100.5-11.9
			c-0.5-0.2-6.9-2.7-7.4-2.8c-4.3-1.9-3.1-1.4-5.3-2.4c-2-0.8-9.9-4.9-14.9-8.1c-1-0.7-2-1.3-3.1-2c-1-0.7-1.9-1.4-2.9-2.1
			c-4-3-2.4-1.8-5.5-4.4c-8.6-7.6-10.8-9.7-21.6-16.5c-15.6-9-28.7-14.1-50.2-17.6C377.7,921.1,354.7,920.3,334.3,922.7z"/>
	</g>
	<g>
		<path class="st7" d="M1022.3,910.9c20-3.6,48-7.1,71.8-9.5c47.2-4.7,99.2-7.4,146.3-5.6c16.9,0.6,50.3,2.3,62.1,10.2
			c2.6,1.8,3.9,3.6,4.4,5.7c1.9,8.2,15.5,9.4,28,9.3c40-0.3,116.3-19.5,199-17.9c18.3,0.5,36.9,2,54.3,5.8
			c-29.5-3.5-60.7-2.8-90.5-0.6c-53.4,3.8-139,17.5-172.1,14.4c-6.3-0.6-13-1.8-17.3-4.9c-2.2-1.6-3.6-3.7-4-5.8
			c-3.2-15.9-76-13.2-100.4-12.1C1154.9,901.9,1084.8,907.8,1022.3,910.9z"/>
	</g>
	<g>
		<path class="st7" d="M1901.5,984.3c-21.8-2.3-37.2-3.4-53.3-4.2c-19.6-0.9-51.4-1-70.2,2.8c-8.9,1.9-14,4.2-18.7,7
			c-23.4,15-27.2,29.8-69,32.4c-17,1-37.5-0.4-54.3-2.5c23.2-0.6,50.5-0.4,69.9-5.1c10.6-2.5,19.3-7,28.2-12.2
			c23.4-13.6,25.1-17.3,42.6-22c5.7-1.5,11.6-2.7,17.6-3.5C1823,972.6,1872.7,978.1,1901.5,984.3z"/>
	</g>
	<path class="st7" d="M492,1018.7c-15.6-1.4-33.6-2.2-41.1-2.1c-10.5,0.1-6.8,0-13.9,0.3c-4.1,0.2-1.7,0-7,0.5
		c-2.3,0.2-4.6,0.4-6.9,0.7c-2.3,0.3-4.6,0.6-6.9,1c-7.7,1.6-7.4,1.5-10,2.2c-3.9,1.1-4.8,1.3-6.5,1.8c-9.6,3.4-6.9,2.4-15,5.9
		c-2.3,1,0-0.1-8.2,4.2c-1.7,0.9-1.1,0.5-2.7,1.4c-5.3,3.2-6.7,3.8-7.7,4.5c-9.7,6.2-4.8,2.9-12.3,7.9c-9,5.9-13.9,8.6-34.5,11.9
		c-27.8,4.5-65.6,3.8-94,1.1c-60.5-6-110.4-20.6-145.9-23.5c16,6.3,33.8,9.5,51.4,12.7c22.9,4,44.9,6.7,67.1,9.4
		c46.9,5.4,90.7,10.7,123.3,5.1c9.2-1.5,17.9-4.7,24.7-9.1c2.3-1.4,4.6-3.5,9.3-6.7c4.9-3.3,2.4-1.8,9.8-6.2
		c4.5-2.6,2.5-1.4,5.2-2.9c6.9-3.5,6.9-3.4,15.3-6.9c10.2-3.5,7-2.5,13.5-4.3c3.8-1.1,2.4-0.7,6.2-1.6c6.6-1.5,2.9-0.8,12.6-2.6
		c2.1-0.3,4.3-0.6,6.5-0.9c1.9-0.3,2.5-0.3,9.9-1.1c16.3-1.5,40.5-1.4,57.7-2.5C492.1,1018.9,492.1,1018.7,492,1018.7z"/>
	<path class="st3" d="M429.5,788.8c0.5-3.3,0.9-6.7,1.1-10C430,782.1,429.6,785.4,429.5,788.8z"/>
	<path class="st3" d="M325,791.2c0-1.1-0.1-2.1-0.3-3.2C324.8,789.1,324.9,790.1,325,791.2z"/>
	<path class="st3" d="M265,793.2c-0.1-0.7-0.3-1.4-0.4-2.1C264.7,791.8,264.9,792.5,265,793.2z"/>
	<path class="st3" d="M900.5,788.8c0.5-3.3,0.9-6.7,1.1-10C901,782.1,900.6,785.4,900.5,788.8z"/>
	<path class="st3" d="M796,791.2c0-1.1-0.1-2.1-0.3-3.2C795.7,789.1,795.8,790.1,796,791.2z"/>
	<path class="st3" d="M736,793.2c-0.1-0.7-0.3-1.4-0.4-2.1C735.7,791.8,735.8,792.5,736,793.2z"/>
	<path class="st3" d="M1261.2,784.4c0-1.1-0.1-2.1-0.3-3.2C1260.9,782.3,1261,783.4,1261.2,784.4z"/>
	<path class="st3" d="M1201.2,786.5c-0.1-0.7-0.3-1.4-0.4-2.1C1200.9,785.1,1201,785.8,1201.2,786.5z"/>
	<path class="st3" d="M1365.7,782c0.5-3.3,0.9-6.7,1.1-10C1366.2,775.3,1365.8,778.7,1365.7,782z"/>
	<path class="st3" d="M1721.3,788.8c0.5-3.3,0.9-6.7,1.1-10C1721.8,782.1,1721.4,785.4,1721.3,788.8z"/>
	<path class="st3" d="M1616.8,791.2c0-1.1-0.1-2.1-0.3-3.2C1616.5,789.1,1616.6,790.1,1616.8,791.2z"/>
	<path class="st3" d="M1556.8,793.2c-0.1-0.7-0.3-1.4-0.4-2.1C1556.5,791.8,1556.6,792.5,1556.8,793.2z"/>
	<path class="st3" d="M1915.7,808.3c0.5-6-0.3-12-2.6-17.8c-2.8,4.9-3.8,10.3-2.9,15.6c-3.6-5.3-6.5-10.8-8.7-16.5
		c0.5,5.2,0.9,10.5,1.4,15.7c-5.2-6.1-7.8-13.1-7.4-20c-1.6,6.6-4.1,13.2-7.5,19.5c-2.2-9.6-1.3-19.4,2.6-28.7
		c-10.8,7.7-17,18.2-17,28.6c-1.9-8.5-3.9-16.9-5.8-25.4c-3.9,8.3-5.3,17-4.3,25.6c-0.9-5.7-3.8-11.2-8.4-16
		c0.3,5.6,0,11.3-0.9,16.9c-3.9-6.3-6.7-12.9-8.2-19.6c0.4,6.6-1.4,13.2-5.1,19.3c-4.5-6.8-4.1-15,1.1-21.6
		c-6.7,5.7-11.6,12.3-14,19.3c-3-10-1.7-20.4,3.7-29.9c-12.2,8.3-18.7,20.1-17.5,31.6c-2.7-11.4-5.5-22.8-8.2-34.2
		c-0.9,12.1-4.1,24.1-9.6,35.7c-1.2-5.1-1.7-10.3-1.6-15.5c-5,4.7-9.3,9.7-12.7,15c-2-5.2-3.1-10.5-3.1-15.8
		c-4.3,4.6-7.6,9.6-9.7,14.8c-3-10.5-4.8-21.2-5.4-31.9c-1,9.4-3.7,18.7-8,27.7c-0.5-0.6-0.9-1.2-1.4-1.8c0-3.4,0-6.8-0.1-10.2
		c-2.9,3.6-5.1,7.5-6.5,11.4c-0.8-2.6-1.4-5.2-1.9-7.8c0.5,3.5,0.1,7.1-1.1,10.5c-1.7-7-3.4-14-5.1-20.9c-0.2,7.4-1.7,14.6-3.4,21.7
		c0.1-7.5,0.3-15.1,0.4-22.6c-1.8,10.4-6,20.7-12.5,30.3c-2.4-7.3-3.4-14.8-3.2-22.3c-1.1,7.1-2.9,14.1-5.3,21
		c-2.5-8-3.8-16.3-4-24.5c0.2,8.9-1.7,17.7-5.5,26.2c-2.9-5.7-4.7-11.7-5.3-17.7c-0.7,4.4-1.5,8.9-2.2,13.3
		c-5.2-4.3-9.3-9.2-12-14.4c2.1,5.5,2.5,11.2,1,16.8c-5.3-5.4-8.8-11.5-10.3-17.8c0,7.1-2.9,14.2-8.3,20.3c-1-6.8-0.1-13.8,2.7-20.4
		c-6.6,6.9-12,14.3-16,21.9c-2.8-8.9-2.5-18.2,0.7-27c-6.4,7.4-10.5,15.7-12,24.2c-2.8-12-5.6-24-8.4-36c0.7,12,2.2,24,4.4,36
		c-6.9-9.3-13.1-18.9-18.4-28.7c5.1,9.7,7.2,20.2,6.1,30.4c-6.6-6.3-10.7-13.7-11.8-21.3c0.2,7.4-2.4,14.9-7.8,21.4
		c-2.6-6.4-2.4-13.3,0.6-19.7c-5,6.8-9.9,13.7-14.9,20.5c0-8.1,1.6-16.2,4.8-24.1c-9,6.9-14.3,15.8-14.5,24.9
		c-1.4-10.4-1.2-20.8,0.4-31.1c-4.6,9.3-7.1,19.1-7.2,28.9c-5.5-10.7-8.8-21.9-9.8-33.1c-1.9,10.7-2.2,21.5-0.8,32.3
		c-5.5-5.4-9.2-11.5-10.8-17.9c1.3,7,0.5,14.2-2.4,21c-3.6-6.5-5.2-13.4-4.7-20.3c-0.4,6.7-3.9,13.3-10.1,18.6
		c-0.6-5.3-0.2-10.7,1.2-16c-5,6.2-10.1,12.5-15.1,18.7c1.8-6.5,2.1-13.2,1-19.8c-3.8,5.8-6.8,11.8-8.8,18
		c-1.7-7.6-3.5-15.2-5.2-22.8c-1.1,7.1-2.3,14.2-3.4,21.4c-5.1-11.8-6.2-24.4-3.2-36.5c-6.8,10.8-9.6,22.6-8.1,34.1
		c-4-6.3-6.4-13.1-7-19.9c-0.3,7.7-0.6,15.5-0.9,23.2c-4.5-8-6.4-16.7-5.7-25.2c-2.3,8.1-4.5,16.3-6.8,24.4c0-7.7-0.1-15.4-0.1-23
		c-1.9,8.9-5.9,17.7-11.7,25.8c0.6-6-0.3-12-2.6-17.8c-2.8,4.9-3.8,10.3-2.9,15.6c-3.6-5.3-6.5-10.8-8.7-16.5
		c0.5,5.2,0.9,10.5,1.4,15.7c-5.2-6.1-7.8-13.1-7.4-20c-1.6,6.6-4.1,13.1-7.5,19.5c-2.2-9.6-1.3-19.4,2.6-28.7
		c-10.8,7.7-17,18.2-17,28.6c-1.9-8.5-3.8-16.9-5.8-25.4c-3.9,8.3-5.3,17-4.3,25.6c-0.9-5.7-3.8-11.2-8.4-16
		c0.1,1.9,0.1,3.7,0.1,5.6c-2.3-3.9-5-7.7-8.2-11.4c1.4,3.7,1.9,7.4,1.6,11.2c-1-2.7-1.9-5.5-2.5-8.3c0.2,2.8-0.1,5.6-0.7,8.4
		c-1.5-3.3-2.8-6.7-3.7-10.1c0.2-0.2,0.3-0.4,0.5-0.6c-0.2,0.1-0.3,0.3-0.5,0.4c-0.5-1.8-0.9-3.7-1.2-5.5c0.3,2.2,0.2,4.5-0.1,6.7
		c-4,3.6-7.2,7.6-9.5,11.8c0.1-7.7,0.3-15.4,0.4-23.1c0.2-0.4,0.4-0.7,0.6-1.1c-0.2,0.1-0.4,0.3-0.6,0.4c0-2.1,0.1-4.1,0.1-6.1
		c-0.4,2.4-1,4.9-1.7,7.3c-5.9,4.4-10.2,9.7-12.8,15.3c-0.9-4.8-1.3-9.7-1.2-14.6c-0.9,5.9-2.3,11.8-4.2,17.6
		c-1.8-7.5-3.6-15-5.4-22.4c-0.6,8.9-2.6,17.8-5.8,26.5c-2.6-5.4-4.3-11-4.8-16.7c-0.7,3.9-1.3,7.7-2,11.6c-0.4,0.3-0.7,0.7-1,1
		c-4.8-4.1-8.6-8.8-11.2-13.7c2.1,5.5,2.5,11.2,1,16.8c-1.2-1.2-2.2-2.4-3.2-3.6c0-0.8-0.1-1.6-0.1-2.5c-0.3,0.4-0.6,0.7-1,1.1
		c-3-4-5-8.3-6.1-12.7c0,5.6-1.8,11.1-5.2,16.2c-0.8-4-1.5-7.9-2-11.9c0.4-1.5,0.9-2.9,1.5-4.3c-0.6,0.7-1.2,1.3-1.8,2
		c-0.3-2.4-0.5-4.9-0.6-7.3c-0.4,3.3-0.9,6.6-1.7,9.9c-2.9,3.4-5.5,6.8-7.8,10.4c0-1.5,0-3.1,0-4.6c-2,2.6-3.7,5.2-5,8
		c-1.7-7.7-1.1-15.7,1.7-23.3c-4.2,4.9-7.4,10.1-9.5,15.5c-0.6-2.3-1.1-4.6-1.7-6.9c-0.1,4.4-0.7,8.7-1.5,12.9
		c-2.6-11.1-5.2-22.2-7.7-33.3c0.7,12,2.2,24,4.4,36c-7.3-9.9-13.7-20-19.3-30.3c5.7,10.2,8.1,21.2,7,32
		c-6.6-6.3-10.7-13.7-11.8-21.2c0.3,7.4-2.4,14.9-7.7,21.4c-2.6-6.4-2.4-13.3,0.6-19.7c-5,6.8-9.9,13.7-14.9,20.5
		c0-8.1,1.6-16.2,4.8-24.1c-9,6.9-14.3,15.8-14.5,24.9c-1.4-10.4-1.2-20.8,0.4-31.1c-4.6,9.3-7.1,19.1-7.2,28.9
		c-5.5-10.7-8.8-21.9-9.8-33.1c-1.9,10.7-2.2,21.5-0.8,32.3c-5.5-5.4-9.2-11.5-10.8-17.9c1.3,7,0.5,14.2-2.4,21
		c-3.6-6.5-5.2-13.4-4.7-20.3c-0.4,6.7-3.9,13.3-10.1,18.6c-0.6-5.3-0.2-10.7,1.2-16c-5,6.2-10.1,12.5-15.1,18.7
		c1.8-6.5,2.1-13.2,1-19.8c-3.8,5.8-6.8,11.8-8.8,18c-1.8-7.6-3.5-15.2-5.2-22.8c-1.1,7.1-2.3,14.2-3.4,21.4
		c-5.1-11.8-6.2-24.4-3.2-36.5c-6.8,10.8-9.6,22.6-8.1,34.1c-4-6.3-6.4-13.1-7-19.9c-0.3,7.7-0.6,15.5-0.9,23.2
		c-4.5-8-6.4-16.7-5.7-25.2c-2.3,8.1-4.5,16.3-6.8,24.4c0-7.7-0.1-15.4-0.1-23c-2,8.9-5.9,17.6-11.7,25.8c0.6-6-0.3-12-2.6-17.8
		c-2.8,4.9-3.8,10.3-2.9,15.6c-3.6-5.3-6.5-10.8-8.7-16.5c0.5,5.2,0.9,10.5,1.4,15.7c-5.2-6.1-7.8-13.1-7.4-20
		c-1.6,6.6-4.1,13.2-7.5,19.5c-2.2-9.6-1.3-19.4,2.6-28.7c-10.8,7.7-17,18.2-17,28.6c-1.9-8.5-3.8-16.9-5.8-25.4
		c-3.9,8.3-5.3,17-4.3,25.6c-0.9-5.7-3.8-11.2-8.4-16c0.3,5.6,0,11.3-0.9,16.9c-3.9-6.3-6.6-12.9-8.2-19.6
		c0.4,6.6-1.4,13.2-5.1,19.3c-4.5-6.8-4.1-15,1.1-21.6c-6.7,5.7-11.6,12.3-14,19.3c-3-10-1.7-20.4,3.7-29.9
		c-12.2,8.3-18.8,20.1-17.5,31.6c-2.7-11.4-5.5-22.8-8.2-34.2c-0.9,12.1-4.1,24.1-9.6,35.7c-1.2-5.1-1.7-10.3-1.6-15.5
		c-5,4.7-9.3,9.7-12.7,15c-2.1-5.2-3.1-10.5-3.1-15.8c-4.3,4.6-7.6,9.6-9.7,14.8c-3-10.5-4.8-21.2-5.4-31.9
		c-1.1,10.4-4.3,20.7-9.4,30.5c0-5-0.1-9.9-0.1-14.9c-4.6,5.8-7.5,12.3-8.4,18.8c-2-8.5-4.1-17-6.1-25.5c-0.1,5.3-0.9,10.4-2,15.5
		c-0.2-0.2-0.4-0.4-0.5-0.6c0.2,0.4,0.3,0.8,0.4,1.2c-0.7,3.2-1.5,6.4-2.3,9.7c-2.3-5-3.9-10.1-4.8-15.3c1.1,8.2-2.4,16.6-9.7,23.3
		l0.6-34.7c-1.8,10.4-6,20.7-12.5,30.3c-2.4-7.3-3.4-14.8-3.2-22.3c-1.1,7.1-2.9,14.1-5.3,21c-2.5-8-3.8-16.3-4-24.5
		c0.2,8.9-1.6,17.7-5.5,26.2c-3-5.7-4.8-11.7-5.3-17.7c-0.7,4.4-1.5,8.9-2.2,13.3c-5.2-4.3-9.2-9.2-12-14.4c2.1,5.5,2.5,11.2,1,16.8
		c-5.3-5.4-8.8-11.5-10.3-17.8c0,7.1-2.9,14.2-8.3,20.3c-1-6.8-0.1-13.8,2.7-20.4c-6.6,6.9-12,14.3-16,21.9
		c-2.8-8.9-2.5-18.2,0.7-27c-6.4,7.4-10.5,15.7-12,24.2c-2.8-12-5.6-24-8.4-36c0.7,12,2.2,24,4.4,36c-6.9-9.3-13-18.9-18.4-28.7
		c5.1,9.7,7.2,20.2,6.1,30.4c-6.6-6.3-10.7-13.7-11.8-21.3c0.3,7.4-2.4,14.9-7.7,21.4c-2.6-6.4-2.4-13.3,0.6-19.7
		c-5,6.8-9.9,13.7-14.9,20.5c0-8.1,1.6-16.2,4.8-24.1c-9,6.9-14.3,15.8-14.5,24.9c-1.4-10.4-1.2-20.8,0.4-31.1
		c-4.6,9.3-7.1,19.1-7.2,28.9c-5.5-10.7-8.8-21.9-9.8-33.1c-1.9,10.7-2.2,21.5-0.8,32.3c-5.5-5.4-9.2-11.5-10.7-17.9
		c1.3,7,0.5,14.2-2.4,21c-3.7-6.5-5.2-13.4-4.7-20.3c-0.4,6.7-3.9,13.3-10.1,18.6c-0.6-5.3-0.2-10.7,1.2-16
		c-5,6.2-10.1,12.5-15.1,18.7c1.8-6.5,2.1-13.2,1-19.8c-3.8,5.8-6.8,11.8-8.8,18c-1.7-7.6-3.5-15.2-5.2-22.8
		c-1.1,7.1-2.3,14.2-3.4,21.4c-5.1-11.8-6.2-24.4-3.2-36.5c-6.8,10.8-9.6,22.6-8.1,34.1c-4-6.3-6.3-13.1-7-19.9
		c-0.3,7.7-0.6,15.5-0.9,23.2c-4.5-8-6.4-16.7-5.7-25.2c-2.3,8.1-4.5,16.3-6.8,24.4c0-7.7-0.1-15.4-0.1-23
		c-1.9,8.9-5.9,17.7-11.6,25.8c0.5-6-0.3-12-2.6-17.8c-2.8,4.9-3.8,10.3-2.9,15.6c-3.6-5.3-6.5-10.8-8.7-16.5
		c0.5,5.2,0.9,10.5,1.4,15.7c-5.2-6.1-7.8-13.1-7.4-20c-1.6,6.6-4.1,13.1-7.5,19.5c-2.2-9.6-1.3-19.4,2.6-28.7
		c-10.8,7.7-17,18.2-17,28.6c-1.9-8.5-3.9-16.9-5.8-25.4c-3.9,8.3-5.3,17-4.3,25.6c-0.9-5.7-3.8-11.2-8.4-16
		c0.3,5.6,0,11.3-0.9,16.8c-3.9-6.3-6.7-12.9-8.2-19.6c0.4,6.6-1.4,13.2-5.1,19.3c-4.5-6.8-4.1-15,1.1-21.6
		c-6.7,5.7-11.6,12.3-14,19.3c-3-10-1.7-20.4,3.7-29.9c-12.2,8.3-18.7,20.1-17.5,31.6c-2.7-11.4-5.5-22.8-8.2-34.2
		c-0.9,12.1-4.1,24.1-9.6,35.7c-1.2-5.1-1.8-10.3-1.6-15.5c-5,4.7-9.3,9.7-12.7,15c-2.1-5.1-3.1-10.5-3.1-15.8
		c-4.3,4.6-7.6,9.6-9.7,14.8c-3-10.5-4.8-21.2-5.4-31.9c-1.1,10.4-4.3,20.7-9.4,30.5c0-5-0.1-9.9-0.1-14.9
		c-4.6,5.8-7.5,12.3-8.4,18.8c-2.1-8.5-4.1-17-6.1-25.5c-0.2,5.5-1,10.9-2.1,16.2c-1.8-2.8-3.9-5.5-6.2-8.1c2,5.2,2.2,10.6,0.7,15.8
		c-3.7-6.5-6.1-13.4-7.3-20.3c1.1,8.2-2.4,16.6-9.7,23.3l0.6-34.7c-1.8,10.4-6,20.7-12.5,30.3c-2.4-7.3-3.4-14.8-3.2-22.3
		c-1.1,7.1-2.9,14.1-5.3,21c-2.5-8-3.8-16.3-4-24.5c0.2,8.9-1.6,17.7-5.5,26.2c-3-5.7-4.8-11.7-5.3-17.7c-0.7,4.4-1.5,8.9-2.2,13.3
		c-5.2-4.3-9.2-9.2-12-14.4c2.1,5.5,2.5,11.2,1,16.8c-5.3-5.4-8.8-11.5-10.3-17.8c0,7.1-2.9,14.2-8.3,20.3c-1-6.8-0.1-13.8,2.7-20.4
		c-6.6,6.9-12,14.3-16,21.9c-2.8-8.9-2.5-18.2,0.7-27c-6.4,7.4-10.5,15.7-12,24.2c-2.8-12-5.6-24-8.4-36c0.7,12,2.2,24,4.4,36
		c-6.9-9.3-13-18.9-18.4-28.7c5.1,9.7,7.2,20.2,6.1,30.4c-6.6-6.3-10.7-13.7-11.8-21.3c0.3,7.4-2.4,14.9-7.7,21.4
		c-2.6-6.4-2.4-13.3,0.6-19.7c-5,6.8-9.9,13.7-14.9,20.5c0-8.1,1.6-16.2,4.8-24.1c-9,6.9-14.3,15.8-14.5,24.9
		c-1.4-10.4-1.2-20.8,0.4-31.1c-4.6,9.3-7.1,19.1-7.2,28.9c-5.5-10.7-8.8-21.9-9.8-33.1c-1.9,10.7-2.2,21.5-0.8,32.3
		c-5.5-5.4-9.2-11.5-10.7-17.9c1.3,7,0.5,14.2-2.4,21c-3.7-6.5-5.2-13.4-4.7-20.3c-0.4,6.7-3.9,13.3-10.1,18.6
		c-0.6-5.3-0.2-10.7,1.2-16c-5,6.2-10.1,12.5-15.1,18.7c1.8-6.5,2.1-13.2,1-19.8c-3.8,5.8-6.8,11.8-8.8,18
		c-1.7-7.6-3.5-15.2-5.2-22.8c-1.1,7.1-2.3,14.2-3.4,21.4c-5.1-11.8-6.2-24.4-3.2-36.5c-6.8,10.8-9.6,22.6-8.1,34.1
		c-4-6.3-6.3-13.1-7-19.9c-0.3,7.7-0.6,15.5-0.9,23.2c-4.5-8-6.4-16.7-5.7-25.2c-2.3,8.1-4.5,16.3-6.8,24.4c0-7.7-0.1-15.4-0.1-23
		c-1.9,8.9-5.9,17.7-11.6,25.8c0.5-6-0.3-12-2.6-17.8c-2.8,4.9-3.8,10.3-2.9,15.6c-3.6-5.3-6.5-10.8-8.7-16.5
		c0.5,5.2,0.9,10.5,1.4,15.7c-5.2-6.1-7.8-13.1-7.4-20c-1.6,6.6-4.1,13.1-7.5,19.5c-2.2-9.6-1.3-19.4,2.6-28.7
		c-10.8,7.7-17,18.2-17,28.6c-1.9-8.5-3.9-16.9-5.8-25.4c-3.9,8.3-5.3,17-4.3,25.6c-0.9-5.7-3.8-11.2-8.4-16
		c0.3,5.6,0,11.3-0.9,16.8c-3.9-6.3-6.6-12.9-8.2-19.6c0.4,6.6-1.4,13.2-5.1,19.3c-4.5-6.8-4.1-15,1.1-21.6
		c-6.7,5.7-11.6,12.3-14,19.3c-3-10-1.7-20.4,3.7-29.9c-12.2,8.3-18.7,20.1-17.5,31.6c-2.7-11.4-5.5-22.8-8.2-34.2
		c-0.9,12.1-4.1,24.1-9.6,35.7c-1.2-5.1-1.8-10.3-1.6-15.5c-5,4.7-9.3,9.7-12.7,15c-2.1-5.1-3.1-10.5-3.1-15.8
		c-4.3,4.6-7.6,9.6-9.7,14.8c-3-10.5-4.8-21.2-5.4-31.9c-1.1,10.4-4.3,20.7-9.4,30.5c0-5-0.1-9.9-0.1-14.9
		C8.2,801,5.3,807.4,4.4,814c-0.9-3.8-1.8-7.6-2.7-11.4v39.7c4.2,0.7,9.3,0.8,14.9,0.8c42.3-0.1,84-5.8,126.2-6.9
		c36.2-0.9,72.5,1.5,108.7,1.1c44.8-0.5,89.5-5.3,134.3-4.2c25.1,0.6,50.7,3.1,75.3,0.8c1.1,8.4,12.4,9.3,26.4,9.2
		c42.3-0.1,84-5.8,126.2-6.9c36.2-0.9,72.5,1.5,108.7,1.1c44.8-0.5,89.5-5.3,134.3-4.2c25,0.6,50.4,3,74.9,0.9
		c4.8,2.2,12.4,2.5,21,2.5c42.3-0.1,84-5.8,126.2-6.9c36.2-1,72.5,1.5,108.7,1.1c31.7-0.4,63.4-2.9,95.1-3.9
		c-0.2,1.1-0.5,2.2-0.6,3.2c-2.2,12.2,10.2,13.3,26.2,13.3c42.3-0.1,84-5.8,126.2-6.9c36.2-0.9,72.5,1.5,108.7,1.1
		c44.9-0.5,89.5-5.3,134.4-4.2c20.5,0.5,41.3,2.2,61.7,1.6c4.8,1.5,11.5,1.7,19,1.7c42.3-0.1,84-5.8,126.2-6.9
		c11.9-0.3,23.7-0.3,35.6-0.1v-27.9C1918.7,803.8,1917.3,806,1915.7,808.3z M1388.3,798.5c0.3-1.6,0.9-3.1,1.6-4.6
		C1389.6,795.5,1389,797,1388.3,798.5z"/>
	<path class="st4" d="M23.4,857.6c21.7-3.4,43.6-6.7,66-7.1c17.9-0.3,40.1-0.2,48.1-10.7c-7.7,6.7-15.4,13.5-23.1,20.2
		c6.9-1,13.4-3.4,18.2-6.8c-0.9,4.6-1.7,9.2-2.6,13.7c7.5-2.8,12.1-8.8,11.1-14.4c3.2,5.3,6.4,10.7,9.6,16
		c36.9,2.6,73.8,5.2,110.7,7.8c-1.4-5.8-5.7-11.2-11.9-15.4c4.4,3.8,10.7,6.5,17.7,7.7c1.3-6,4.9-11.9,10.5-16.8
		c-0.9,5.9,0.7,11.9,4.7,17.2c2.8-6.3,8.7-12,16.8-16c-10.2,3.7-7.6,14.7,2,19.1c9.6,4.3,22.2,4,33.9,3.4
		c46.6-2.2,93.3-4.3,139.9-6.5c5.5-0.3,11.4-0.6,15.3-3.1c4-2.5,3.8-7.8-1.4-8.8c5.7,1.7,11.3,3.4,17,5.1
		c6.8-10.5,16.2-20.3,27.7-28.9c-4.6,8.4-6.6,17.5-5.6,26.5c6.1-5.7,14.7-10.3,24.5-13c1.1,5.9-12.9,12-6.3,16.1
		c2.2,1.4,5.7,1.3,8.8,1.2c76.7-3.9,153.3-7.7,230-11.6c-2.3-2.8-4.5-5.5-6.8-8.3c4.8,3.1,10.6,5.5,16.8,7.1
		c1.7-5.1,4.9-10,9.5-14.3c-0.7,4.1,0.1,8.3,2.3,12.1c17.4-5.8,35.9-10.1,54.9-12.9c-7.9,6.5-15.7,13.1-23.6,19.6
		c13.3-1.1,26.5-2.1,39.8-3.2c6.8-0.5,15.7-5.3,10.1-7.9c3.5,2.1,7,4.3,10.5,6.4c1-3.3,2-6.6,3-9.9c1,2.5,2,5.1,3,7.6
		c2.7-3.2,5.4-6.5,8.1-9.7c-0.6,3.8,0.1,7.6,2,11.2c6.3-3.4,12.6-6.8,18.9-10.2c-5.4,5.8-4,15.7,6.2,17
		c-159.4,9.3-319.2,15.9-479.2,19.9c-139.8,3.5-281,4.9-418.2-12.8C35.1,863.2,28.2,861,23.4,857.6z"/>
	<path class="st4" d="M1623.4,871.8c-16.9,2.3-34.3-2.7-51.4-1.3c-5.7,0.5-11.2,1.7-16.9,2.1c-11.6,0.9-23.2-1.4-34.7-2.6
		c-34.7-3.6-69.9,2.6-105,2.5c-7.8,0-14.7-1.9-21.3-4.6c2.6-5,4.3-10.3,5.1-15.6c3.9,6.1,9.8,11.6,17.2,16.1
		c2.5-9.3,8.5-18.2,17.2-25.8c-2.5,8.2-2.1,16.7,1.2,24.7c16.5-3.5,32.5-8.1,47.6-13.6c0.4,2.1-1.3,4-2.2,6c-0.8,2-0.4,4.6,2.6,5.4
		c1.5,0.4,3.1,0.1,4.7-0.1c11-1.8,21.6-4.5,31.5-8.1c2.9-1,6.3-2.2,9.4-1.4c2.2,0.6,3.5,1.9,4.8,3.2c5.5,5.2,12.9,9.5,21.5,12.4
		c3-4.9,3.8-10.3,2-15.5c10.2,8.7,28.3,11.8,45.2,11.9c16.8,0,33.5-2.4,50.3-2.4c9,0,18.2,0.8,27-0.4c20.9-2.8,36.2-17.5,32.4-31.2
		c-0.6,7.4-1.1,14.8-3.7,21.9c4.9-5.3,10.8-10.3,17.6-14.6c-2,3.9-3.9,7.9-5.9,11.8c7.7-3.7,15.4-7.4,23.1-11.1
		c-9.8,5.2-16.4,12.9-18.4,21c23.7-5.8,50.1,0.8,75.4,0.5c4.4-0.1,9.5-0.6,11.5-3.2c3.9-4.9-7.4-9.2-8.9-14.7c6.2,2,12.4,4,18.7,6
		c-7.1-7.5-10.3-16.5-9-25.3c3.8,7.8,7.7,15.7,11.5,23.5c-1-10.4,2-21,8.8-30.5c-3,13.4-2.8,27.2,0.6,40.6
		c14.1-3.2,28.9-5.1,43.8-5.7c2.8-0.1,6.6,0.5,6.5,2.3c-0.1,1-1.6,1.7-3,2.2c-6.2,2.1-13.1,3.1-20,3.9c-34,4-68.6,4.7-103.1,5.5
		c-42.2,0.9-84.5,1.9-126.7,2.8c0,0.3-0.9,0.1-1.4,0.2C1627.4,871.1,1625,871.6,1623.4,871.8z"/>
	<ellipse class="st8" cx="318.3" cy="838.1" rx="24.6" ry="2.3"/>
	<path class="st8" d="M104.2,840.3c0,1.2-20.2,2.3-45.2,2.3c-25,0-45.2-1-45.2-2.3s20.2-2.3,45.2-2.3
		C83.9,838.1,104.2,839.1,104.2,840.3z"/>
	<path class="st8" d="M688.6,842.6c0,1.2-20.2,2.3-45.2,2.3s-45.2-1-45.2-2.3c0-1.2,20.2-2.3,45.2-2.3S688.6,841.3,688.6,842.6z"/>
	<path class="st8" d="M1713.5,836.9c0,1.2-20.2,2.3-45.2,2.3c-25,0-45.2-1-45.2-2.3s20.2-2.3,45.2-2.3
		C1693.3,834.7,1713.5,835.7,1713.5,836.9z"/>
	<path class="st8" d="M1590.9,833.2c0,1.2-8.2,2.3-18.2,2.3s-18.2-1-18.2-2.3s8.2-2.3,18.2-2.3S1590.9,832,1590.9,833.2z"/>
	<ellipse class="st8" cx="1606.3" cy="838.1" rx="10.2" ry="1.1"/>
	<path class="st8" d="M704.7,836.9c0,0.6-6.6,1.1-14.9,1.1s-14.9-0.5-14.9-1.1c0-0.6,6.6-1.1,14.9-1.1S704.7,836.3,704.7,836.9z"/>
</g>
</svg>
